# xmcd
#
# Track frame offsets:
#	150
#	16124
#	35537
#	55670
#	72477
#	89057
#	101211
#	113919
#	127394
#	144223
#
# Disc length: 2196 seconds
#
# Revision: 1
# Processed by: cddbd v1.5.1PL0 Copyright (c) Steve Scherf et al.
# Submitted via: audiograbber 1.83.01
#
DISCID=9008920a
DTITLE=Adam Marshall - The Last Marshall
DYEAR=2003
DGENRE=Country
TTITLE0=Original Cowboy
TTITLE1=Come Home As Fast As You Can
TTITLE2=Spotlight
TTITLE3=Cowboy Hat
TTITLE4=Honest Man
TTITLE5=We Get Down
TTITLE6=Another Man
TTITLE7=The Last Marshall
TTITLE8=Memories Of You
TTITLE9=Come Home As Fast As Yu Can (Presidential Speeches)
EXTD=
EXTT0=
EXTT1=
EXTT2=
EXTT3=
EXTT4=
EXTT5=
EXTT6=
EXTT7=
EXTT8=
EXTT9=
PLAYORDER=
